<?xml version="1.0" encoding="UTF-8" standalone="no"?>
<svg width="39px" height="39px" viewBox="0 0 39 39" version="1.1" xmlns="http://www.w3.org/2000/svg" xmlns:xlink="http://www.w3.org/1999/xlink" xmlns:sketch="http://www.bohemiancoding.com/sketch/ns">
    <!-- Generator: Sketch 3.4.4 (17249) - http://www.bohemiancoding.com/sketch -->
    <title>transactions</title>
    <desc>Created with Sketch.</desc>
    <defs></defs>
    <g id="Page-1" stroke="none" stroke-width="1" fill="none" fill-rule="evenodd" sketch:type="MSPage">
        <g id="blue" sketch:type="MSLayerGroup" transform="translate(-93.000000, -80.000000)" fill="#4D9EE1">
            <g id="transactions" transform="translate(93.000000, 80.000000)" sketch:type="MSShapeGroup">
                <path d="M2,12.9992748 L2,12.9992748 L2,35.0007252 C2,36.1080476 2.89054964,37 3.99040483,37 L35.0095952,37 C36.1059218,37 37,36.1044579 37,35.0007252 L37,12.9992748 C37,11.8919524 36.1094504,11 35.0095952,11 L3.99040483,11 C2.89407821,11 2,11.8955421 2,12.9992748 L2,12.9992748 Z M0,12.9992748 C0,10.7905363 1.78994178,9 3.99040483,9 L35.0095952,9 C37.2134349,9 39,10.7867947 39,12.9992748 L39,35.0007252 C39,37.2094637 37.2100582,39 35.0095952,39 L3.99040483,39 C1.7865651,39 0,37.2132053 0,35.0007252 L0,12.9992748 L0,12.9992748 Z" id="Shape"></path>
                <path d="M6,8.5 L6,8.5 L6,11 L4,9 L36,9 L34,11 L34,8.5 C34,8.21832952 33.7812934,8 33.5023425,8 L6.49765754,8 C6.2242342,8 6,8.22432698 6,8.5 L6,8.5 Z M4,8.5 C4,7.11928813 5.1201337,6 6.49765754,6 L33.5023425,6 C34.8817606,6 36,7.10966206 36,8.5 L36,11 L4,11 L4,8.5 L4,8.5 Z" id="Shape"></path>
                <path d="M10,5.5 L10,5.5 L10,8 L8,6 L32,6 L30,8 L30,5.5 C30,5.21884034 29.780532,5 29.4994984,5 L10.5005016,5 C10.2271087,5 10,5.22669579 10,5.5 L10,5.5 Z M8,5.5 C8,4.11928813 9.12537944,3 10.5005016,3 L29.4994984,3 C30.8804873,3 32,4.10966206 32,5.5 L32,8 L8,8 L8,5.5 L8,5.5 Z" id="Shape"></path>
                <path d="M14,2.5 L14,2.5 L14,5 L12,3 L28,3 L26,5 L26,2.5 C26,2.21875024 25.7806664,2 25.5,2 L14.5,2 C14.2269386,2 14,2.22657549 14,2.5 L14,2.5 Z M12,2.5 C12,1.11928813 13.1250889,0 14.5,0 L25.5,0 C26.8807119,0 28,1.10966206 28,2.5 L28,5 L12,5 L12,2.5 L12,2.5 Z" id="Shape"></path>
                <path d="M18.4949833,33 L20.0501672,33 L20.0501672,31.2828947 C23.8377926,31.0855263 25.9698997,29.4868421 25.9698997,27.2763158 C25.9698997,24.4934211 23.0852843,23.6447368 20,22.9736842 L20,17.8815789 C21.8311037,18.0592105 22.7341137,18.7697368 23.6120401,19.875 L25.1923077,18.9473684 C24.264214,17.7828947 22.8344482,16.6776316 20.0501672,16.4605263 L20.0501672,15 L18.4949833,15 L18.4949833,16.4210526 C15.0585284,16.5789474 13.0267559,18.1776316 13.0267559,20.2302632 C13.0267559,22.7565789 15.6605351,23.5855263 18.5702341,24.2368421 L18.5702341,29.8815789 C16.4130435,29.7236842 15.1839465,28.8552632 14.1053512,27.5921053 L12.5,28.4210526 C13.40301,29.6447368 15.2090301,31.0657895 18.4949833,31.2631579 L18.4949833,33 Z M20,24.5526316 C22.1822742,25.0855263 23.8628763,25.7171053 23.8628763,27.4144737 C23.8628763,29.1315789 22.1822742,29.7631579 20,29.8815789 L20,24.5526316 Z M18.5702341,22.6381579 C16.5886288,22.1447368 15.1337793,21.5526316 15.1337793,20.0921053 C15.1337793,18.9078947 16.187291,17.9407895 18.5702341,17.8421053 L18.5702341,22.6381579 Z" id="$"></path>
            </g>
        </g>
    </g>
</svg>